# xmcd
#
# Track frame offsets:
#	150
#	16791
#	32930
#	50782
#	65130
#	80792
#	96623
#	113331
#	126271
#	140355
#	158424
#	174093
#	193269
#	209998
#
# Disc length: 3002 seconds
#
# Revision: 1
# Processed by: cddbd v1.5.2PL0 Copyright (c) Steve Scherf et al.
# Submitted via: audiograbber 1.83.01
#
DISCID=cd0bb80e
DTITLE=Mary Duff - Changing Lanes
DYEAR=2016
DGENRE=Country
TTITLE0=Mr Noble
TTITLE1=Looking Forward To The Past
TTITLE2=Askin' Too Damn Much
TTITLE3=What Heart Can
TTITLE4=Just Not Enough
TTITLE5=I Can't Find A Reason to Stay
TTITLE6=Somewhere in the Heart of Texas
TTITLE7=Happy
TTITLE8=I Feel You Everywhere
TTITLE9=I Am A Woman (Duet)
TTITLE10=Somebody Will
TTITLE11=Breathe With me
TTITLE12=Changing Lanes
TTITLE13=Anymore
EXTD=
EXTT0=
EXTT1=
EXTT2=
EXTT3=
EXTT4=
EXTT5=
EXTT6=
EXTT7=
EXTT8=
EXTT9=
EXTT10=
EXTT11=
EXTT12=
EXTT13=
PLAYORDER=
